<?xml version="1.0" standalone="no"?><!DOCTYPE svg PUBLIC "-//W3C//DTD SVG 1.1//EN" "http://www.w3.org/Graphics/SVG/1.1/DTD/svg11.dtd"><svg t="1685418217470" class="icon" viewBox="0 0 1024 1024" version="1.1" xmlns="http://www.w3.org/2000/svg" p-id="1338" xmlns:xlink="http://www.w3.org/1999/xlink" width="200" height="200"><path d="M571.164444 511.943111L871.224889 154.339556a9.102222 9.102222 0 0 0-6.968889-14.961778h-91.221333a18.631111 18.631111 0 0 0-14.051556 6.513778l-247.409778 294.968888-247.466666-294.968888a18.261333 18.261333 0 0 0-14.023111-6.542223H158.833778a9.102222 9.102222 0 0 0-6.968889 14.990223l300.003555 357.603555L151.893333 869.546667a9.102222 9.102222 0 0 0 6.968889 14.961777h91.221334c5.376 0 10.524444-2.389333 14.051555-6.513777l247.438222-294.968889 247.409778 294.968889c3.413333 4.124444 8.590222 6.542222 14.051556 6.542222h91.221333a9.102222 9.102222 0 0 0 6.968889-14.990222L571.164444 511.943111z" p-id="1339" fill="#ffffff"></path></svg>