<?xml version="1.0" standalone="no"?><!DOCTYPE svg PUBLIC "-//W3C//DTD SVG 1.1//EN" "http://www.w3.org/Graphics/SVG/1.1/DTD/svg11.dtd"><svg t="1684996323466" class="icon" viewBox="0 0 1024 1024" version="1.1" xmlns="http://www.w3.org/2000/svg" p-id="1155" xmlns:xlink="http://www.w3.org/1999/xlink" width="200" height="200"><path d="M960 511.886222H896a9.159111 9.159111 0 0 0-9.102222 9.159111v365.710223H137.130667V137.045333H502.897778a9.159111 9.159111 0 0 0 9.159111-9.159111v-64a9.159111 9.159111 0 0 0-9.159111-9.130666H91.448889c-20.224 0-36.579556 16.327111-36.579556 36.579555v841.102222c0 20.252444 16.355556 36.608 36.579556 36.608h841.130667c20.252444 0 36.579556-16.355556 36.579555-36.579555V521.045333a9.159111 9.159111 0 0 0-9.130667-9.159111z" p-id="1156" fill="#ffffff"></path><path d="M333.624889 538.055111l-2.190222 135.907556a18.318222 18.318222 0 0 0 18.289777 18.488889h0.455112l134.855111-3.299556a9.472 9.472 0 0 0 6.172444-2.645333L966.542222 212.252444a9.187556 9.187556 0 0 0 0-12.913777l-142.051555-141.937778a9.472 9.472 0 0 0-13.027556 0L336.241778 531.655111a9.500444 9.500444 0 0 0-2.616889 6.4z m72.533333 26.965333L817.976889 154.168889l51.655111 51.541333-411.989333 411.107556-52.224 1.251555 0.796444-53.020444z" p-id="1157" fill="#ffffff"></path></svg>